<svg version="1.1" xmlns="http://www.w3.org/2000/svg" viewBox="0 0 1528.25 1012.5833333333339" width="1528.25" height="1012.5833333333339">
  <!-- svg-source:excalidraw -->
  
  <defs>
    <style class="style-fonts">
      @font-face {
        font-family: "Virgil";
        src: url("https://excalidraw.com/Virgil.woff2");
      }
      @font-face {
        font-family: "Cascadia";
        src: url("https://excalidraw.com/Cascadia.woff2");
      }
    </style>
  </defs>
  <rect x="0" y="0" width="1528.25" height="1012.5833333333339" fill="#ffffff"></rect><g transform="translate(316 487.25) rotate(0 118.7485122680664 17.5)"><text x="0" y="0" font-family="Virgil, Segoe UI Emoji" font-size="28px" fill="#000000" text-anchor="start" style="white-space: pre;" direction="ltr" dominant-baseline="text-before-edge">generate prompts</text></g><g stroke-linecap="round" transform="translate(296 461.25) rotate(0 138 43)"><path d="M0 0 C99.15 0, 198.31 0, 276 0 M0 0 C99.66 0, 199.31 0, 276 0 M276 0 C276 23.06, 276 46.11, 276 86 M276 0 C276 19.8, 276 39.6, 276 86 M276 86 C217.74 86, 159.48 86, 0 86 M276 86 C208.32 86, 140.63 86, 0 86 M0 86 C0 60.65, 0 35.29, 0 0 M0 86 C0 62.49, 0 38.97, 0 0" stroke="#000000" stroke-width="1" fill="none"></path></g><g transform="translate(10 386.58333333333303) rotate(0 57.45623779296875 122.5)"><text x="114.9124755859375" y="0" font-family="Virgil, Segoe UI Emoji" font-size="28px" fill="#000000" text-anchor="end" style="white-space: pre;" direction="ltr" dominant-baseline="text-before-edge">subjects</text><text x="114.9124755859375" y="35" font-family="Virgil, Segoe UI Emoji" font-size="28px" fill="#000000" text-anchor="end" style="white-space: pre;" direction="ltr" dominant-baseline="text-before-edge"></text><text x="114.9124755859375" y="70" font-family="Virgil, Segoe UI Emoji" font-size="28px" fill="#000000" text-anchor="end" style="white-space: pre;" direction="ltr" dominant-baseline="text-before-edge"></text><text x="114.9124755859375" y="105" font-family="Virgil, Segoe UI Emoji" font-size="28px" fill="#000000" text-anchor="end" style="white-space: pre;" direction="ltr" dominant-baseline="text-before-edge">styles</text><text x="114.9124755859375" y="140" font-family="Virgil, Segoe UI Emoji" font-size="28px" fill="#000000" text-anchor="end" style="white-space: pre;" direction="ltr" dominant-baseline="text-before-edge"></text><text x="114.9124755859375" y="175" font-family="Virgil, Segoe UI Emoji" font-size="28px" fill="#000000" text-anchor="end" style="white-space: pre;" direction="ltr" dominant-baseline="text-before-edge"></text><text x="114.9124755859375" y="210" font-family="Virgil, Segoe UI Emoji" font-size="28px" fill="#000000" text-anchor="end" style="white-space: pre;" direction="ltr" dominant-baseline="text-before-edge">prefixes</text></g><g stroke-linecap="round"><g transform="translate(163 512.25) rotate(0 32 -0.5)"><path d="M0 0 C24.53 -0.38, 49.07 -0.77, 64 -1 M0 0 C15.42 -0.24, 30.84 -0.48, 64 -1" stroke="#000000" stroke-width="4" fill="none"></path></g><g transform="translate(163 512.25) rotate(0 32 -0.5)"><path d="M35.97 9.7 C46.72 5.6, 57.46 1.5, 64 -1 M35.97 9.7 C42.73 7.12, 49.48 4.54, 64 -1" stroke="#000000" stroke-width="4" fill="none"></path></g><g transform="translate(163 512.25) rotate(0 32 -0.5)"><path d="M35.65 -10.82 C46.52 -7.05, 57.39 -3.29, 64 -1 M35.65 -10.82 C42.48 -8.45, 49.31 -6.09, 64 -1" stroke="#000000" stroke-width="4" fill="none"></path></g></g><mask></mask><g stroke-linecap="round"><g transform="translate(148 406.9762183095463) rotate(0 39.5 28.636890845226844)"><path d="M0 0 C26.59 19.28, 53.18 38.56, 79 57.27 M0 0 C28.2 20.45, 56.41 40.89, 79 57.27" stroke="#000000" stroke-width="4" fill="none"></path></g><g transform="translate(148 406.9762183095463) rotate(0 39.5 28.636890845226844)"><path d="M50.15 49.03 C59.86 51.81, 69.57 54.58, 79 57.27 M50.15 49.03 C60.45 51.98, 70.75 54.92, 79 57.27" stroke="#000000" stroke-width="4" fill="none"></path></g><g transform="translate(148 406.9762183095463) rotate(0 39.5 28.636890845226844)"><path d="M62.2 32.42 C67.85 40.79, 73.51 49.15, 79 57.27 M62.2 32.42 C68.2 41.29, 74.19 50.17, 79 57.27" stroke="#000000" stroke-width="4" fill="none"></path></g></g><mask></mask><g stroke-linecap="round"><g transform="translate(158.5 617.25) rotate(0 38.5 -27)"><path d="M0 0 C29.94 -21, 59.87 -41.99, 77 -54 M0 0 C29.03 -20.36, 58.06 -40.71, 77 -54" stroke="#000000" stroke-width="4" fill="none"></path></g><g transform="translate(158.5 617.25) rotate(0 38.5 -27)"><path d="M59.81 -29.41 C66.49 -38.97, 73.18 -48.53, 77 -54 M59.81 -29.41 C66.29 -38.68, 72.77 -47.95, 77 -54" stroke="#000000" stroke-width="4" fill="none"></path></g><g transform="translate(158.5 617.25) rotate(0 38.5 -27)"><path d="M48.03 -46.21 C59.29 -49.24, 70.56 -52.27, 77 -54 M48.03 -46.21 C58.95 -49.15, 69.87 -52.08, 77 -54" stroke="#000000" stroke-width="4" fill="none"></path></g></g><mask></mask><g stroke-linecap="round"><g transform="translate(604.5 501.75) rotate(0 52.75 -1)"><path d="M0 0 C29.89 -0.57, 59.78 -1.13, 105.5 -2 M0 0 C35.47 -0.67, 70.94 -1.34, 105.5 -2" stroke="#000000" stroke-width="4" fill="none"></path></g><g transform="translate(604.5 501.75) rotate(0 52.75 -1)"><path d="M77.51 8.79 C85.44 5.74, 93.37 2.68, 105.5 -2 M77.51 8.79 C86.92 5.16, 96.33 1.54, 105.5 -2" stroke="#000000" stroke-width="4" fill="none"></path></g><g transform="translate(604.5 501.75) rotate(0 52.75 -1)"><path d="M77.12 -11.72 C85.16 -8.97, 93.2 -6.21, 105.5 -2 M77.12 -11.72 C86.66 -8.46, 96.2 -5.19, 105.5 -2" stroke="#000000" stroke-width="4" fill="none"></path></g></g><mask></mask><g transform="translate(766 486.5) rotate(0 144.52261352539062 17.5)"><text x="0" y="0" font-family="Virgil, Segoe UI Emoji" font-size="28px" fill="#000000" text-anchor="start" style="white-space: pre;" direction="ltr" dominant-baseline="text-before-edge">Image URL Retrieval</text></g><g stroke-linecap="round" transform="translate(744 462.5) rotate(0 166 43)"><path d="M0 0 C66.66 0, 133.32 0, 332 0 M0 0 C122.2 0, 244.4 0, 332 0 M332 0 C332 33.43, 332 66.85, 332 86 M332 0 C332 26.65, 332 53.31, 332 86 M332 86 C223.55 86, 115.09 86, 0 86 M332 86 C232.2 86, 132.4 86, 0 86 M0 86 C0 56.52, 0 27.04, 0 0 M0 86 C0 58.72, 0 31.43, 0 0" stroke="#000000" stroke-width="1" fill="none"></path></g><g stroke-linecap="round"><g transform="translate(921.25 110) rotate(0 -0.44556812458961303 151.7911710272915)"><path d="M0.42 -0.83 C5.99 75.36, 2.46 157.78, -4.07 304.41 M-0.55 -0.44 C3.07 66.43, 1.76 133.66, -0.98 302.24" stroke="#000000" stroke-width="4" fill="none"></path></g></g><mask></mask><g stroke-linecap="round"><g transform="translate(747.5 263.75) rotate(0 183.3606946575319 -1.6134951000549336)"><path d="M1.19 0.46 C125.51 1.5, 250.68 -0.01, 365.64 -4.01 M1.08 -1.08 C84.14 -2.73, 171.24 -2.64, 363.38 -3.65" stroke="#000000" stroke-width="4" fill="none"></path></g></g><mask></mask><g stroke-linecap="round" transform="translate(812.5 121.25) rotate(0 15.625 20)"><path d="M4.57 3.5 C7.28 0.81, 13.44 -0.38, 17.23 0.14 C21.02 0.67, 24.87 4.17, 27.31 6.67 C29.75 9.17, 31.28 11.21, 31.88 15.16 C32.48 19.12, 32.55 26.11, 30.93 30.39 C29.31 34.66, 25.63 39.55, 22.17 40.79 C18.72 42.04, 13.51 39.6, 10.19 37.84 C6.87 36.08, 4.01 33.83, 2.25 30.23 C0.48 26.63, -2.49 21, -0.42 16.24 C1.65 11.49, 10.25 3.8, 14.67 1.71 C19.1 -0.38, 26.32 3.92, 26.14 3.72 M15.26 0.87 C19.01 0.58, 25.51 1.34, 28.44 4.89 C31.37 8.44, 33.25 17.35, 32.82 22.16 C32.39 26.96, 28.71 31.12, 25.88 33.74 C23.04 36.35, 18.57 37.29, 15.8 37.86 C13.04 38.42, 12.24 39.35, 9.28 37.13 C6.32 34.91, -0.26 28.17, -1.96 24.54 C-3.65 20.91, -2.2 18.56, -0.9 15.35 C0.39 12.14, 2.59 7.85, 5.81 5.28 C9.03 2.72, 16.27 0.39, 18.42 -0.04 C20.58 -0.48, 18.74 2.58, 18.77 2.65" stroke="#000000" stroke-width="4" fill="none"></path></g><g stroke-linecap="round" transform="translate(737.5 171.25) rotate(0 20 22.5)"><path d="M22.65 0.46 C26.56 0.56, 29.57 4.1, 32.62 7.19 C35.66 10.28, 40.41 14.36, 40.94 19 C41.47 23.64, 38.38 31.06, 35.8 35.04 C33.21 39.02, 29.55 41.69, 25.42 42.9 C21.29 44.1, 14.93 44.2, 11.01 42.28 C7.1 40.35, 3.37 35.24, 1.92 31.35 C0.47 27.46, 1.53 23.74, 2.32 18.91 C3.11 14.09, 1.55 4.46, 6.65 2.42 C11.74 0.37, 27.42 4.17, 32.88 6.66 C38.34 9.15, 39.85 17.27, 39.4 17.33 M23.68 -0.88 C27.34 -0.37, 31.21 3.06, 34.01 7.59 C36.82 12.12, 40.29 20.86, 40.49 26.3 C40.68 31.74, 38.04 37.18, 35.19 40.24 C32.34 43.3, 27.46 44.95, 23.36 44.66 C19.26 44.37, 14.38 41.25, 10.59 38.51 C6.8 35.76, 1.55 32.77, 0.62 28.2 C-0.3 23.63, 3.12 15.95, 5.07 11.1 C7.01 6.24, 9.08 0.98, 12.3 -0.92 C15.53 -2.82, 22.32 -0.7, 24.42 -0.31 C26.52 0.08, 25.16 0.71, 24.89 1.41" stroke="#000000" stroke-width="4" fill="none"></path></g><g stroke-linecap="round" transform="translate(737.5 302.5) rotate(0 21.25 16.25)"><path d="M8.21 2.04 C11.48 0.14, 17.29 0.75, 21.78 0.84 C26.28 0.94, 32.06 0.63, 35.18 2.63 C38.3 4.62, 39.88 8.83, 40.53 12.81 C41.18 16.78, 41.32 23.25, 39.07 26.48 C36.81 29.71, 30.97 31.28, 26.99 32.19 C23.01 33.1, 19.17 33.25, 15.19 31.93 C11.2 30.61, 5.64 27.28, 3.1 24.28 C0.56 21.28, -1.7 17.79, -0.06 13.93 C1.57 10.07, 9.02 3.09, 12.93 1.12 C16.84 -0.85, 23.27 1.73, 23.4 2.13 M4.09 7.77 C7.48 5.36, 15.83 2.6, 20.95 1.83 C26.07 1.05, 31.22 1.57, 34.8 3.14 C38.39 4.72, 41.71 8.19, 42.48 11.26 C43.25 14.33, 41.49 18.81, 39.44 21.55 C37.39 24.28, 33.66 26.17, 30.18 27.69 C26.7 29.22, 23.24 30.44, 18.56 30.69 C13.89 30.95, 4.99 31.92, 2.12 29.24 C-0.74 26.56, 0.81 18.49, 1.37 14.61 C1.93 10.72, 5.16 7.38, 5.48 5.93 C5.81 4.47, 3.22 5.91, 3.32 5.9" stroke="#000000" stroke-width="4" fill="none"></path></g><g stroke-linecap="round" transform="translate(933.75 96.25) rotate(0 18.125 23.125)"><path d="M4.54 8.07 C7.14 4.68, 13.72 1.81, 17.63 0.89 C21.53 -0.03, 25.15 -0.36, 27.97 2.54 C30.8 5.43, 33.58 13.01, 34.58 18.26 C35.59 23.51, 35.38 29.58, 34.01 34.03 C32.64 38.48, 29.44 43.23, 26.35 44.94 C23.26 46.65, 19.28 45.83, 15.46 44.3 C11.64 42.77, 5.96 39.25, 3.45 35.76 C0.94 32.27, -1.68 29.24, 0.39 23.36 C2.46 17.47, 11.89 3.68, 15.87 0.45 C19.85 -2.78, 24.52 3.78, 24.29 3.97 M10.51 1.02 C13.14 -0.97, 17.76 0.33, 21.9 2.5 C26.04 4.68, 32.75 9.88, 35.36 14.08 C37.98 18.28, 38.85 23.42, 37.59 27.72 C36.33 32.01, 30.62 37.25, 27.81 39.84 C25 42.43, 24.43 42.77, 20.72 43.26 C17 43.75, 9.01 45.52, 5.52 42.78 C2.03 40.04, 0.48 32.49, -0.22 26.84 C-0.91 21.2, -0.92 13.22, 1.37 8.92 C3.67 4.62, 11.84 2.65, 13.53 1.04 C15.23 -0.58, 11.89 -0.98, 11.54 -0.79" stroke="#000000" stroke-width="4" fill="none"></path></g><g stroke-linecap="round" transform="translate(732.5 90) rotate(0 19.375 19.375)"><path d="M14.36 0.36 C18.22 -0.73, 23.57 0.9, 27.48 2.55 C31.39 4.2, 35.74 6.91, 37.83 10.26 C39.91 13.61, 41.1 18.9, 40 22.66 C38.89 26.43, 34.99 30.11, 31.19 32.86 C27.39 35.6, 21.66 39.31, 17.2 39.11 C12.74 38.92, 7.5 34.54, 4.44 31.71 C1.37 28.87, -1.22 25.68, -1.17 22.12 C-1.12 18.56, 1.75 13.71, 4.73 10.33 C7.71 6.95, 13.79 3.59, 16.7 1.83 C19.61 0.08, 22.29 -0.11, 22.21 -0.19 M6.32 1.83 C9.28 -0.69, 17.01 2.73, 21.52 2.97 C26.03 3.21, 30.25 1.02, 33.41 3.27 C36.56 5.52, 39.52 11.78, 40.44 16.47 C41.35 21.16, 41.49 28.32, 38.9 31.41 C36.31 34.51, 29.31 34.33, 24.92 35.01 C20.52 35.7, 16.35 36.21, 12.54 35.52 C8.72 34.82, 3.86 33.92, 2.05 30.83 C0.23 27.74, 0.69 21, 1.66 16.96 C2.63 12.93, 7.26 8.84, 7.85 6.6 C8.43 4.37, 5.54 4, 5.17 3.55" stroke="#000000" stroke-width="4" fill="none"></path></g><g transform="translate(829.8792114257812 10) rotate(0 95.06039428710938 17.5)"><text x="190.12078857421875" y="0" font-family="Virgil, Segoe UI Emoji" font-size="28px" fill="#000000" text-anchor="end" style="white-space: pre;" direction="ltr" dominant-baseline="text-before-edge">kNN LAION5B</text></g><g transform="translate(1264.25 484.58333333333394) rotate(0 117.58649444580078 17.5)"><text x="0" y="0" font-family="Virgil, Segoe UI Emoji" font-size="28px" fill="#000000" text-anchor="start" style="white-space: pre;" direction="ltr" dominant-baseline="text-before-edge">Download Images</text></g><g stroke-linecap="round" transform="translate(1242.25 460.58333333333394) rotate(0 138 43)"><path d="M0 0 C70.17 0, 140.34 0, 276 0 M0 0 C64.36 0, 128.73 0, 276 0 M276 0 C276 23.03, 276 46.07, 276 86 M276 0 C276 21.59, 276 43.18, 276 86 M276 86 C189.19 86, 102.38 86, 0 86 M276 86 C179.95 86, 83.9 86, 0 86 M0 86 C0 54.34, 0 22.68, 0 0 M0 86 C0 55.11, 0 24.22, 0 0" stroke="#000000" stroke-width="1" fill="none"></path></g><g stroke-linecap="round"><g transform="translate(1388.75 804.5833333333339) rotate(0 -80.25 0)"><path d="M0 0 C-55.24 0, -110.49 0, -160.5 0 M0 0 C-59.99 0, -119.98 0, -160.5 0" stroke="#000000" stroke-width="4" fill="none"></path></g><g transform="translate(1388.75 804.5833333333339) rotate(0 -80.25 0)"><path d="M-132.31 -10.26 C-142.01 -6.73, -151.72 -3.2, -160.5 0 M-132.31 -10.26 C-142.85 -6.43, -153.38 -2.59, -160.5 0" stroke="#000000" stroke-width="4" fill="none"></path></g><g transform="translate(1388.75 804.5833333333339) rotate(0 -80.25 0)"><path d="M-132.31 10.26 C-142.01 6.73, -151.72 3.2, -160.5 0 M-132.31 10.26 C-142.85 6.43, -153.38 2.59, -160.5 0" stroke="#000000" stroke-width="4" fill="none"></path></g></g><mask></mask><g stroke-linecap="round"><g transform="translate(1390.75 590.5833333333339) rotate(0 -86.375 177)"><path d="M0 0 C1.33 125.47, 2.67 250.94, 3.75 353 M0 0 C1.36 127.69, 2.71 255.39, 3.75 353 M3.75 353 C-35.74 353.22, -75.24 353.44, -176.5 354 M3.75 353 C-51.19 353.3, -106.14 353.61, -176.5 354" stroke="#000000" stroke-width="4" fill="none"></path></g><g transform="translate(1390.75 590.5833333333339) rotate(0 -86.375 177)"><path d="M-148.37 343.58 C-158.37 347.29, -168.37 350.99, -176.5 354 M-148.37 343.58 C-158.54 347.35, -168.72 351.12, -176.5 354" stroke="#000000" stroke-width="4" fill="none"></path></g><g transform="translate(1390.75 590.5833333333339) rotate(0 -86.375 177)"><path d="M-148.25 364.1 C-158.29 360.51, -168.33 356.92, -176.5 354 M-148.25 364.1 C-158.47 360.45, -168.69 356.79, -176.5 354" stroke="#000000" stroke-width="4" fill="none"></path></g></g><mask></mask><g transform="translate(962.5000000000005 780.5833333333339) rotate(0 90.24436950683594 17.5)"><text x="0" y="0" font-family="Virgil, Segoe UI Emoji" font-size="28px" fill="#000000" text-anchor="start" style="white-space: pre;" direction="ltr" dominant-baseline="text-before-edge">Add Captions</text></g><g stroke-linecap="round" transform="translate(946.5000000000002 756.5833333333339) rotate(0 106 43)"><path d="M0 0 C66.25 0, 132.5 0, 212 0 M0 0 C69.94 0, 139.87 0, 212 0 M212 0 C212 27.19, 212 54.39, 212 86 M212 0 C212 30.54, 212 61.08, 212 86 M212 86 C141.84 86, 71.68 86, 0 86 M212 86 C156.41 86, 100.83 86, 0 86 M0 86 C0 52.37, 0 18.73, 0 0 M0 86 C0 66.05, 0 46.1, 0 0" stroke="#000000" stroke-width="1" fill="none"></path></g><g transform="translate(810.5000000000002 926.5833333333339) rotate(0 162.44268798828125 17.5)"><text x="0" y="0" font-family="Virgil, Segoe UI Emoji" font-size="28px" fill="#000000" text-anchor="start" style="white-space: pre;" direction="ltr" dominant-baseline="text-before-edge">Add Segmentation Maps</text></g><g stroke-linecap="round" transform="translate(792.5000000000002 900.5833333333339) rotate(0 179 43)"><path d="M0 0 C137.09 0, 274.18 0, 358 0 M0 0 C118.58 0, 237.16 0, 358 0 M358 0 C358 25.67, 358 51.34, 358 86 M358 0 C358 29.26, 358 58.53, 358 86 M358 86 C250.56 86, 143.12 86, 0 86 M358 86 C225.15 86, 92.29 86, 0 86 M0 86 C0 52.94, 0 19.88, 0 0 M0 86 C0 61.68, 0 37.35, 0 0" stroke="#000000" stroke-width="1" fill="none"></path></g><g stroke-linecap="round"><g transform="translate(898.7500000000002 796.5833333333339) rotate(0 -123.25 1)"><path d="M0 0 C-93.53 0.76, -187.06 1.52, -246.5 2 M0 0 C-54.45 0.44, -108.9 0.88, -246.5 2" stroke="#000000" stroke-width="4" fill="none"></path></g><g transform="translate(898.7500000000002 796.5833333333339) rotate(0 -123.25 1)"><path d="M-218.39 -8.49 C-229.06 -4.51, -239.72 -0.53, -246.5 2 M-218.39 -8.49 C-224.6 -6.17, -230.81 -3.85, -246.5 2" stroke="#000000" stroke-width="4" fill="none"></path></g><g transform="translate(898.7500000000002 796.5833333333339) rotate(0 -123.25 1)"><path d="M-218.23 12.03 C-228.95 8.23, -239.68 4.42, -246.5 2 M-218.23 12.03 C-224.47 9.82, -230.72 7.6, -246.5 2" stroke="#000000" stroke-width="4" fill="none"></path></g></g><mask></mask><g stroke-linecap="round"><g transform="translate(432.547419327579 787.4080170173183) rotate(0 66.9575833286564 73.0518304041284)" fill-rule="evenodd"><path d="M1.8 -0.85 L-0.17 146.69 L2.49 151.08 L16.42 154.35 L30.56 157.3 L72.56 160.26 L112.7 159.27 L123.87 153.73 L134.47 150.91 L134.14 145.13 L134.11 -1.99 L135.27 -2.06 L128.69 -4.36 L124.26 -7.83 L112.86 -11.76 L65.53 -14.64 L32.02 -12.92 L17.57 -10.92 L4.39 -5.8 L-0.75 0.45" stroke="none" stroke-width="0" fill="#ced4da" fill-rule="evenodd"></path><path d="M-0.13 -0.7 C0.02 21.29, 0.28 106.96, 0.43 131.56 C0.58 156.16, -0.19 143.47, 0.78 146.9 C1.74 150.34, 0.99 150.42, 6.24 152.17 C11.48 153.93, 21.45 156.13, 32.23 157.43 C43 158.72, 57.9 159.92, 70.89 159.94 C83.87 159.96, 99.91 159, 110.15 157.56 C120.39 156.12, 128.35 153.5, 132.33 151.29 C136.3 149.08, 133.77 147.25, 134 144.31 C134.23 141.36, 133.66 155.92, 133.72 133.6 C133.79 111.29, 134.5 32.88, 134.4 10.42 C134.29 -12.03, 134.74 1.69, 133.1 -1.13 C131.45 -3.96, 128.75 -5.07, 124.53 -6.52 C120.31 -7.97, 117.51 -8.67, 107.77 -9.82 C98.04 -10.96, 78.77 -12.85, 66.13 -13.38 C53.48 -13.9, 41.87 -14.21, 31.91 -12.96 C21.95 -11.71, 11.74 -8.13, 6.36 -5.87 C0.98 -3.61, 0.52 -0.43, -0.36 0.62 C-1.23 1.68, 0.85 0.7, 1.09 0.46 M-1.66 1.55 C-1.63 23.78, -0.87 109.26, -0.53 133.14 C-0.18 157.01, -0.7 141.5, 0.41 144.79 C1.51 148.08, 0.95 150.79, 6.11 152.88 C11.27 154.96, 20.43 156.32, 31.38 157.3 C42.33 158.29, 58.64 158.97, 71.83 158.81 C85.01 158.64, 100.5 157.58, 110.5 156.3 C120.49 155.03, 127.57 152.87, 131.79 151.16 C136.01 149.44, 135.46 148.99, 135.82 146.01 C136.18 143.03, 134.15 155.77, 133.97 133.29 C133.78 110.8, 134.53 33.62, 134.71 11.09 C134.89 -11.44, 136.74 1.15, 135.04 -1.88 C133.34 -4.91, 129.07 -5.83, 124.5 -7.1 C119.92 -8.38, 117.18 -8.44, 107.58 -9.53 C97.98 -10.63, 79.35 -13.23, 66.91 -13.68 C54.46 -14.12, 43.17 -13.62, 32.92 -12.22 C22.67 -10.81, 11.2 -7.51, 5.41 -5.25 C-0.37 -2.98, -0.93 0.33, -1.79 1.36 C-2.64 2.39, 0.23 1.08, 0.28 0.96" stroke="#000000" stroke-width="1" fill="none"></path></g></g><mask></mask><g stroke-linecap="round" transform="translate(433.0253222678727 771.6782066646147) rotate(0 66.96837208515629 13.54384943047262)"><path d="M66.99 0.83 C77.53 0.56, 90.63 0.49, 100.41 1.54 C110.18 2.59, 120.21 5.08, 125.66 7.12 C131.11 9.17, 133.31 11.4, 133.12 13.79 C132.92 16.19, 129.96 19.69, 124.49 21.47 C119.02 23.25, 110.05 23.69, 100.29 24.46 C90.53 25.24, 77.19 25.96, 65.94 26.12 C54.68 26.28, 42.35 26.56, 32.79 25.4 C23.22 24.24, 14.06 21.03, 8.55 19.16 C3.03 17.3, -0.3 16.21, -0.3 14.21 C-0.31 12.21, 2.91 9.17, 8.53 7.14 C14.15 5.11, 22.6 3.18, 33.41 2.02 C44.22 0.85, 66.02 0.46, 73.41 0.16 C80.79 -0.15, 77.95 0.15, 77.72 0.21 M77.71 -0.44 C88.02 0.06, 99.44 2.68, 108.03 4.1 C116.62 5.52, 124.86 6.34, 129.27 8.1 C133.67 9.86, 136.01 12.35, 134.45 14.67 C132.89 17, 127.02 20.28, 119.89 22.05 C112.76 23.82, 102.33 24.46, 91.68 25.29 C81.03 26.11, 67.38 27.23, 55.98 26.97 C44.57 26.71, 32.07 24.97, 23.26 23.72 C14.44 22.46, 6.61 21.49, 3.11 19.43 C-0.4 17.36, 0.37 13.6, 2.25 11.32 C4.12 9.03, 7.38 7.47, 14.36 5.72 C21.35 3.96, 33.44 1.86, 44.14 0.8 C54.84 -0.27, 72.85 -0.7, 78.56 -0.68 C84.27 -0.65, 78.47 0.8, 78.4 0.96" stroke="none" stroke-width="0" fill="#fff"></path><path d="M87.08 1.65 C97.27 2.1, 108.41 2.3, 115.96 3.74 C123.5 5.17, 129.87 7.8, 132.34 10.27 C134.81 12.73, 134.16 16.33, 130.78 18.51 C127.4 20.69, 120.55 22.11, 112.07 23.35 C103.6 24.59, 90.87 25.45, 79.93 25.96 C68.99 26.47, 56.98 27.05, 46.44 26.41 C35.89 25.77, 24.24 23.86, 16.66 22.11 C9.07 20.36, 3.11 17.93, 0.94 15.93 C-1.22 13.94, 0.01 12.12, 3.68 10.16 C7.35 8.2, 14.65 5.84, 22.96 4.19 C31.26 2.54, 41.72 0.67, 53.51 0.25 C65.3 -0.16, 85.93 1.42, 93.69 1.69 C101.46 1.96, 100.31 1.6, 100.08 1.87 M81.03 -0.39 C91.42 0.08, 102.73 2.11, 111 3.79 C119.28 5.48, 127.11 7.86, 130.67 9.71 C134.23 11.57, 134.62 12.92, 132.37 14.9 C130.12 16.88, 124.35 19.67, 117.19 21.59 C110.03 23.52, 99.65 25.34, 89.41 26.45 C79.17 27.56, 66.72 28.77, 55.74 28.25 C44.75 27.73, 32.05 24.89, 23.5 23.34 C14.95 21.79, 8.23 21.15, 4.44 18.95 C0.65 16.75, -1.17 12.53, 0.77 10.15 C2.7 7.77, 8.46 6.43, 16.05 4.67 C23.63 2.91, 35.91 0.34, 46.3 -0.41 C56.68 -1.16, 72.94 0.11, 78.37 0.16 C83.79 0.21, 78.89 -0.12, 78.86 -0.12" stroke="#000000" stroke-width="1" fill="none"></path></g><g transform="translate(436.0674438476565 967.5833333333339) rotate(0 69.21627807617188 17.5)"><text x="138.43255615234375" y="0" font-family="Virgil, Segoe UI Emoji" font-size="28px" fill="#000000" text-anchor="end" style="white-space: pre;" direction="ltr" dominant-baseline="text-before-edge">Database</text></g><g stroke-linecap="round"><g transform="translate(1107.7500000000002 505.58333333333394) rotate(0 48.75 0)"><path d="M0 0 C34.59 0, 69.17 0, 97.5 0 M0 0 C34.82 0, 69.64 0, 97.5 0" stroke="#000000" stroke-width="4" fill="none"></path></g><g transform="translate(1107.7500000000002 505.58333333333394) rotate(0 48.75 0)"><path d="M69.31 10.26 C79.31 6.62, 89.31 2.98, 97.5 0 M69.31 10.26 C79.38 6.6, 89.45 2.93, 97.5 0" stroke="#000000" stroke-width="4" fill="none"></path></g><g transform="translate(1107.7500000000002 505.58333333333394) rotate(0 48.75 0)"><path d="M69.31 -10.26 C79.31 -6.62, 89.31 -2.98, 97.5 0 M69.31 -10.26 C79.38 -6.6, 89.45 -2.93, 97.5 0" stroke="#000000" stroke-width="4" fill="none"></path></g></g><mask></mask><g stroke-linecap="round"><g transform="translate(765.7500000000002 939.5833333333339) rotate(0 -55.25 0)"><path d="M0 0 C-43.37 0, -86.74 0, -110.5 0 M0 0 C-35.38 0, -70.75 0, -110.5 0" stroke="#000000" stroke-width="4" fill="none"></path></g><g transform="translate(765.7500000000002 939.5833333333339) rotate(0 -55.25 0)"><path d="M-82.31 -10.26 C-93.37 -6.23, -104.44 -2.21, -110.5 0 M-82.31 -10.26 C-91.33 -6.98, -100.36 -3.69, -110.5 0" stroke="#000000" stroke-width="4" fill="none"></path></g><g transform="translate(765.7500000000002 939.5833333333339) rotate(0 -55.25 0)"><path d="M-82.31 10.26 C-93.37 6.23, -104.44 2.21, -110.5 0 M-82.31 10.26 C-91.33 6.98, -100.36 3.69, -110.5 0" stroke="#000000" stroke-width="4" fill="none"></path></g></g><mask></mask><g stroke-linecap="round"><g transform="translate(376.41666666666765 863.5833333333339) rotate(0 -55.25 0)"><path d="M0 0 C-27.51 0, -55.02 0, -110.5 0 M0 0 C-36.98 0, -73.95 0, -110.5 0" stroke="#000000" stroke-width="4" fill="none"></path></g><g transform="translate(376.41666666666765 863.5833333333339) rotate(0 -55.25 0)"><path d="M-82.31 -10.26 C-89.33 -7.71, -96.35 -5.15, -110.5 0 M-82.31 -10.26 C-91.74 -6.83, -101.18 -3.39, -110.5 0" stroke="#000000" stroke-width="4" fill="none"></path></g><g transform="translate(376.41666666666765 863.5833333333339) rotate(0 -55.25 0)"><path d="M-82.31 10.26 C-89.33 7.71, -96.35 5.15, -110.5 0 M-82.31 10.26 C-91.74 6.83, -101.18 3.39, -110.5 0" stroke="#000000" stroke-width="4" fill="none"></path></g></g><mask></mask><g transform="translate(24.25518798828216 851.9166666666661) rotate(0 97.62240600585938 17.5)"><text x="195.24481201171875" y="0" font-family="Virgil, Segoe UI Emoji" font-size="28px" fill="#000000" text-anchor="end" style="white-space: pre;" direction="ltr" dominant-baseline="text-before-edge">Model Training</text></g></svg>